# xmcd
#
# Track frame offsets:
#       150
#       9717
#       18768
#       31016
#       40426
#       54161
#       67769
#       81220
#       91435
#       102916
#       115421
#       127518
#       138307
#       150921
#       164311
#       175636
#       189354
#       205845
#       220576
#       236846
#       250467
#       261982
#
# Disc length: 3653 seconds
#
# Revision: 0
# Processed by: cddbd v1.5.2PL0 Copyright (c) Steve Scherf et al.
# Submitted via: WaveLab 6.11
#
DISCID=130e4316
DTITLE=Ralf Bendix - Groﬂe Erfolge and Evergreens
DYEAR=2014
DGENRE=
TTITLE0=Sie hieﬂ Mary-Ann
TTITLE1=Come prima
TTITLE2=Trinidad
TTITLE3=Babysitter-Boogie
TTITLE4=Striptease Susi
TTITLE5=Mama, hol' den Hammer
TTITLE6=Die grosse Nummer wird gemacht
TTITLE7=Babysitter-Twist
TTITLE8=Der grosse Track nach Idahoe
TTITLE9=Schaffe, schaffe, H‰usle baue
TTITLE10=In meinem Schaukelstuhl
TTITLE11=Die Liebe ist ein Wildwestfilm
TTITLE12=Der schwarze Koffer
TTITLE13=Aber du in deinem Himmelbett
TTITLE14=Charmaine
TTITLE15=Ein bisschen Licht, ein bisschen Luft, ein bisschen Sonnenschein
TTITLE16=Tumba Tumbala
TTITLE17=Vergiﬂ nicht zu l‰cheln
TTITLE18=Sekt f¸r das ganze Lokal
TTITLE19=100 bunte B‰nder
TTITLE20=Ich bin rundherum zufrieden
TTITLE21=Nostalgie
EXTD=
EXTT0=
EXTT1=
EXTT2=
EXTT3=
EXTT4=
EXTT5=
EXTT6=
EXTT7=
EXTT8=
EXTT9=
EXTT10=
EXTT11=
EXTT12=
EXTT13=
EXTT14=
EXTT15=
EXTT16=
EXTT17=
EXTT18=
EXTT19=
EXTT20=
EXTT21=
PLAYORDER=
